<svg xmlns="http://www.w3.org/2000/svg" version="1.1" viewBox="-5.0 -10.0 110.0 135.0">
 <path d="m68.75 31.371c-12.062 0-21.875 9.8125-21.875 21.875s9.8125 21.875 21.875 21.875c29.02-1.2031 29.012-42.555 0-43.75zm0 40.625c-24.875-1.0312-24.867-36.473 0-37.5 10.34 0 18.75 8.4102 18.75 18.75s-8.4102 18.75-18.75 18.75z"/>
 <path d="m67.188 55.59c0.40234 11.375 16.785 11.371 17.188 0-0.40234-11.375-16.785-11.371-17.188 0zm8.5938 5.4688c-7.2266-0.23047-7.2266-10.707 0-10.938 7.2266 0.23047 7.2266 10.707 0 10.938z"/>
 <path d="m50 3.2461c-25.848 0-46.875 21.027-46.875 46.875 2.5742 62.188 91.184 62.168 93.75 0 0-25.848-21.027-46.875-46.875-46.875zm28.125 79.688c-2.0547-0.035156-2.0547-3.0898 0-3.125 2.0547 0.035156 2.0547 3.0898 0 3.125zm4.2812-3.4531c-0.73047-1.6445-2.3711-2.7969-4.2812-2.7969-4.7656-0.03125-6.4414 6.457-2.3203 8.7383-28.312 21.105-69.75 0.29688-69.555-35.301 0-24.125 19.625-43.75 43.75-43.75 37.801-0.12891 57.738 45.578 32.406 73.109z"/>
 <path d="m57.031 26.684h14.062c7.2227-0.22656 7.2305-10.707 0-10.938h-14.062c-7.2227 0.22656-7.2305 10.707 0 10.938zm0-7.8125h0.78125v1.5625c0 0.86328 0.69922 1.5625 1.5625 1.5625s1.5625-0.69922 1.5625-1.5625v-1.5625h6.25v1.5625c0 0.86328 0.69922 1.5625 1.5625 1.5625s1.5625-0.69922 1.5625-1.5625v-1.5625h0.78125c3.0781 0.054687 3.0781 4.6328 0 4.6875h-5.4688v-1.5625c0-0.86328-0.69922-1.5625-1.5625-1.5625s-1.5625 0.69922-1.5625 1.5625v1.5625h-5.4688c-3.0781-0.054688-3.0781-4.6328 0-4.6875z"/>
 <path d="m27.145 67.488c-0.89062-1.4766-5.2617-8.7188-6.0586-10.035-3.8711-6.0781-12.934-0.625-9.3633 5.6523l7.2656 12.039c0.75391 1.25 1.9531 2.1328 3.3711 2.4844 4.5859 1.2539 8.5586-4.1211 5.9922-8.1367 0 0-1.2109-2.0039-1.2109-2.0039zm-1.1953 5.3906c-0.41406 1.9805-3.2969 2.418-4.2812 0.64844 0 0-2.8281-4.6836-2.8281-4.6836l1.3398-0.80859c0.73828-0.44531 0.97656-1.4062 0.53125-2.1445-0.44531-0.73828-1.4062-0.97656-2.1445-0.53125l-1.3398 0.80859-2.8281-4.6836c-1.5469-2.668 2.3828-5.0312 4.0156-2.4219 0 0 0.40234 0.66797 0.40234 0.66797l-1.3398 0.80859c-0.73828 0.44531-0.97656 1.4062-0.53125 2.1445 0.44922 0.74609 1.418 0.97266 2.1445 0.53125l1.3398-0.80859 3.2305 5.3516-1.3398 0.80859c-0.73828 0.44531-0.97656 1.4062-0.53125 2.1445 0.44922 0.74609 1.418 0.97266 2.1445 0.53125l1.3398-0.80859c0.47656 0.71094 0.93359 1.5664 0.67187 2.4414z"/>
 <path d="m65.434 77.496c-0.41406-0.75781-1.3594-1.0352-2.1211-0.625l-17.188 9.375c-0.75781 0.41406-1.0352 1.3633-0.625 2.1211 0.41797 0.76562 1.375 1.0312 2.1211 0.625l17.188-9.375c0.75781-0.41406 1.0352-1.3633 0.625-2.1211z"/>
 <path d="m67.5 78.871-4.6875 6.25c-1.2188 1.6367 1.2617 3.5078 2.5 1.875 0 0 4.6875-6.25 4.6875-6.25 1.2188-1.6367-1.2656-3.5039-2.5-1.875z"/>
 <path d="m17.066 50.117c0.84766 0.066406 1.6133-0.57422 1.6758-1.4375l1.5625-20.312c0.066406-0.85938-0.57813-1.6094-1.4375-1.6758-0.86328-0.066406-1.6094 0.57812-1.6758 1.4375l-1.5625 20.312c-0.066406 0.85938 0.57812 1.6094 1.4375 1.6758z"/>
 <path d="m29.688 32.934c4.3086 0 7.8125-3.5039 7.8125-7.8125-0.36719-10.34-15.258-10.336-15.625 0 0 4.3086 3.5039 7.8125 7.8125 7.8125zm0-12.5c6.1797 0.16016 6.1797 9.2148 0 9.375-6.1797-0.16016-6.1797-9.2148 0-9.375z"/>
 <path d="m34.301 34.41c-0.6875 0.046875-1.2656 0.53906-1.418 1.207-0.92969 3.8906 1.1328 8.2383 4.8125 9.8516-4.6406 4.0859-3.5391 11.633-1.7266 17.02 0.19922 0.68359 0.82031 1.1289 1.5 1.1289 1.0195 0.011718 1.8047-1.0195 1.5-2-1.4531-4.75-3.2773-11.992 2.4141-14.855-1.0625 4.0352-1.2031 8.3164-0.27344 12.426 0.1875 0.84766 1.0508 1.3711 1.8711 1.1797 0.83984-0.19141 1.3711-1.0273 1.1797-1.8711-1.7812-7.8516 1.0195-16.77 6.9727-22.191 0.63672-0.58203 0.68359-1.5703 0.10156-2.207-2.3281-2.7344-7.8164 6.9375-8.5195 8.8242-2.875-3.2461 3.0977-10.34 5.9609-12.32 1.6367-1.2148-0.20312-3.7266-1.8555-2.5156-3.9844 3.0508-8.9609 9.0234-7.7852 14.527-2.1133-0.88281-3.3672-3.1523-3.2266-5.4102 0.76562-1.043-0.14062-2.9375-1.5-2.793z"/>
 <path d="m32.688 62.418c0.59766-0.62109 0.58203-1.6094-0.039062-2.2109-1.0352-0.99609-1.6328-2.4492-1.6016-3.8828 0.0625-1.5078 0.51172-2.8086 0.27734-4.4297-0.26172-1.8242-1.4102-3.4609-3-4.3672 0.15234-1.8203 0.55859-7.2852-2.375-6.6523-0.82422 0.25391-1.2891 1.125-1.0352 1.9531 0.91797 2.9961 0.33984 6.4297-1.5117 8.9609-0.76953 0.98438 0.027344 2.5234 1.2578 2.4844 1.625-0.125 2.1562-2.2148 2.8086-3.4531 1.457 1.4922 0.44531 3.5625 0.44922 5.4375-0.25391 2.0273 2.0938 8.3555 4.7656 6.1602z"/>
 <path d="m45.801 70.332c-1.3906 1.4961 0.87891 3.6211 2.2812 2.1328 3.4102-3.7969-0.81641-9.4922-5.5273-7.6875-1.9336 0.72656-3.3281 2.6367-3.4648 4.7539-0.097656 2.0469 2.9414 2.2539 3.1172 0.20312 0.058594-0.88281 0.66797-1.7383 1.4492-2.0312 1.6367-0.66016 3.3125 1.2305 2.1445 2.625z"/>
 <path d="m52.465 76.055c1.3594-0.39063 3.207 0.67187 3.6719-1.2734 0.16406-0.84766-0.39062-1.668-1.2383-1.832-3.9766-1.0117-9.1406 2.5625-6.3008 6.6016 1.3281 1.5586 3.6992-0.44531 2.3906-2.0117-0.26953-0.74609 0.64062-1.2969 1.4727-1.4805z"/>
 <path d="m39.098 17.387c0.92578 0.23047 2.3086 0.60938 3.5352 0.47266 0.91797 1.4922 0.52344 3.5547-0.87109 4.6055-1.1836 0.85156-0.47266 2.8516 0.95703 2.7969 3.2422-0.84375 4.3438-5.7148 2.8945-8.4727 1.8242-1.0273 5.6953-8.3945 2.1367-8.9648-0.86719-0.0625-1.6094 0.58594-1.6719 1.4453-0.14062 1.8984-1.1094 4.3906-2.7852 5.3086-0.87109 0.38672-2.0625 0.12891-3.418-0.21875-1.9922-0.48047-2.7617 2.4805-0.78125 3.0273z"/>
 <path d="m79.312 28.203c0.38672 1.6367 1.457 3.4805 3.1602 3.7227 1.4961 0.054688 2.1602-2.0977 0.84375-2.8789-0.46875-0.30078-0.8125-0.83594-0.94141-1.4727-0.13281-0.63672-0.027344-1.2656 0.28516-1.7266 0.48438-0.71484 0.29688-1.6875-0.41797-2.1719-2.5078-1.2656-3.3906 2.6602-2.9297 4.5273z"/>
 <path d="m72.152 41.879c1.4062 1.1523 5.0352 1.6992 4.8477-0.92188-0.14844-0.85156-0.95312-1.4141-1.8086-1.2734-0.37891 0.066406-0.82422-0.058594-1.1953-0.32812-0.37109-0.27344-0.625-0.66016-0.67578-1.0391-0.11719-0.85547-0.90625-1.4531-1.7578-1.3359-2.5469 0.61719-0.94531 3.8867 0.58984 4.8984z"/>
 <path d="m68.273 65.93c-0.63281 0.24219-1.3984 0.15234-1.9531-0.22656-0.71094-0.48828-1.6836-0.30469-2.1719 0.40625-1.2031 2.0391 1.7812 3.1289 3.3828 3.082 1.3594 0.070313 3.3906-0.65625 2.7617-2.3672-0.3125-0.80469-1.2188-1.2031-2.0195-0.89453z"/>
 <path d="m37.5 73.559c-8.2578 0.26172-8.2578 12.238 0 12.5 8.2578-0.26172 8.2578-12.238 0-12.5zm0 9.375c-4.1211-0.10938-4.1211-6.1445 0-6.25 4.1211 0.10938 4.1211 6.1445 0 6.25z"/>
 <path d="m12.5 53.246c0.97266 0.007812 1.7344-0.91406 1.5352-1.8711l-1.5625-7.8125c-0.43359-2.0039-3.4336-1.4102-3.0625 0.61328l1.5625 7.8125c0.14844 0.74219 0.80078 1.2539 1.5312 1.2539z"/>
<text x="0.0" y="117.5" font-size="5.0" font-weight="bold" font-family="Arbeit Regular, Helvetica, Arial-Unicode, Arial, Sans-serif" fill="#000000">Created by LUTFI GANI AL ACHMAD</text><text x="0.0" y="122.5" font-size="5.0" font-weight="bold" font-family="Arbeit Regular, Helvetica, Arial-Unicode, Arial, Sans-serif" fill="#000000">from Noun Project</text></svg>